<svg height="100" viewBox="0 0 100 100" width="100" xmlns="http://www.w3.org/2000/svg"><path d="m99.7115043 34.6376237c-.5424572-.8190922-1.4997761-1.223328-2.4517037-1.0903528l-29.1323611-2.1807602-30.6326818-30.63085688c-.8189953-.81909221-1.9038552-.95206738-2.8612286-.4095461-.8189954.54252127-1.2231834 1.49995341-1.0902239 2.45199356l-2.1805024 29.13580532-30.62723594 30.6363034c-.81899538.8190922-.95195484 1.9040803-.40949769 2.8615669.54245714.8190922 1.4997761 1.3616135 2.4517037 1.0903528l29.13236103 2.1807602 30.6326818 30.6363034c.4094977.4095461 1.090224.6808067 1.6326539.6808067.4094977 0 .8189953-.1382855 1.2231834-.2712606.8189954-.5425213 1.2231834-1.4999535 1.0902239-2.4519936l2.1805024-29.1358053 30.6326817-30.6363034c.6807263-.8244161.951955-1.9147009.4094977-2.8668772zm-37.0301472 18.6527432-9.3918441 9.3929544c-.8189953.8190922-2.0421788 1.3616135-3.2653077 1.3616135-1.2231834 0-2.4517037-.5425213-3.2653077-1.3616135l-9.3918441-9.3929544c-.8189954-.8190922-1.3614525-2.0424203-1.3614525-3.2656938 0-1.2232736.5424571-2.4519936 1.3614525-3.2656938l9.3918441-9.3929545c1.7709774-1.7711868 4.7650838-1.7711868 6.5360612 0l9.3918441 9.3929545c.8189954.8190922 1.3614525 2.0424202 1.3614525 3.2656938-.0053191 1.223328-.55309 2.4519935-1.3667621 3.2656938z" fill="#8e8485"/></svg>