<svg fill="#fff" viewBox="0 0 24 24" xmlns="http://www.w3.org/2000/svg"><path d="m4 2v14h2.822.001c.275 0 .528-.127.696-.349l.246-.324 1.529 1.175-.333.438c-.509.668-1.301 1.06-2.141 1.06h-2.82v4h6.059l1.682-4.397c.101-.259.067-.543-.074-.774l-2.823-1.977c-.742-.544-.941-1.566-.458-2.349l1.857-3.254-.92-.153c-.21-.073-.453-.058-.666.048l-2.077 1.039c-.436.218-.966.042-1.184-.394-.219-.435-.042-.966.394-1.184l2.077-1.04c.641-.32 1.471-.509 2.15-.275l1.121.409 1.536.685c.53.237.969.653 1.234 1.17l.707.966c.152.295.407.48.738.48h1.647c.552 0 1 .448 1 1 0 .552-.448 1-1 1l-1.602-.001c-.995 0-1.896-.55-2.352-1.437l-.38-.564-1.577 2.843 1.749 1.573c.742.743.976 1.855.595 2.831l-1.433 3.755h8v-20zm9.764 6c-.975 0-1.765-.79-1.765-1.765s.79-1.765 1.765-1.765 1.765.79 1.765 1.765-.79 1.765-1.765 1.765z" fill="#fff"/></svg>