<svg fill="#fff" viewBox="0 0 24 24" xmlns="http://www.w3.org/2000/svg"><path d="m8 5a3 3 0 0 0 -3 3 3 3 0 0 0 3 3 3 3 0 0 0 3-3 3 3 0 0 0 -3-3zm8 0a3 3 0 0 0 -3 3 3 3 0 0 0 3 3 3 3 0 0 0 3-3 3 3 0 0 0 -3-3zm-12.2363281 4.0019531c-.4381406.0168281-1.3914688.12975-2.0117188.75-.82699997.8269999-.75 2.2460939-.75 2.2460939s1.4190938.077 2.2460938-.75.75-2.2460939.75-2.2460939-.0883281-.0056094-.234375 0zm4.2363281 3.9980469c-3 0-7 1.464-7 3.5v1.5c0 .552.448 1 1 1h12c.552 0 1-.448 1-1v-1.5c0-2.036-4-3.5-7-3.5zm8 0c-.317 0-.646516.019781-.978516.050781 1.182.865 1.978516 2.008219 1.978516 3.449219v1.5c0 .552.448 1 1 1h4c.552 0 1-.448 1-1v-1.5c0-2.036-4-3.5-7-3.5z" fill="#fff"/></svg>