<svg viewBox="0 0 24 24" xmlns="http://www.w3.org/2000/svg"><path d="m14.490234 2.4902344a1.0001 1.0001 0 0 0 -.697265 1.7167968l.595703.5957032-6.1992189 4.9726562-.9824219-.9824218a1.0001 1.0001 0 0 0 -.7167968-.3027344 1.0001 1.0001 0 0 0 -.6972656 1.7167966l3.3007812 3.300781-5.8046875 5.802735c-.387.387-.387 1.01339 0 1.400391.387.387 1.0133906.387 1.4003906 0l5.8027349-5.804688 3.300781 3.300781a1.0001 1.0001 0 1 0 1.414062-1.414062l-.896484-.896485 4.904297-6.2675778.578125.5781248a1.0001 1.0001 0 1 0 1.414062-1.4140622l-6-6a1.0001 1.0001 0 0 0 -.716797-.3027344z"/></svg>