<svg viewBox="0 0 24 24" xmlns="http://www.w3.org/2000/svg"><path d="m10.050781 3.9902344a1.0001 1.0001 0 0 0 -.6874998.3027344l-7.7773437 7.7773432c-.77148373.771484-.77270047 2.053745-.0019531 2.826172.0011.0011.0008534.002807.0019531.003907l4.6992187 4.798828a1.0001 1.0001 0 1 0 1.4296876-1.398438l-4.7070313-4.808593a1.0001 1.0001 0 0 0 -.0078125-.007813l7.777344-7.7773438a1.0001 1.0001 0 0 0 -.726563-1.7167968zm5.560547.0097656c-.53 0-1.039062.2109375-1.414062.5859375l-7.5781254 7.5781245c-.825.825-.825 2.165235 0 2.990235l4.2265624 4.226562c.825.825 2.165234.825 2.990235 0l7.578124-7.578125c.375-.375.585938-.884062.585938-1.414062v-4.388672c0-1.105-.895-2-2-2zm3.388672 2c.552 0 1 .448 1 1s-.448 1-1 1-1-.448-1-1 .448-1 1-1z"/></svg>