<svg viewBox="0 0 24 24" xmlns="http://www.w3.org/2000/svg"><path d="m12 3c-2.4889898 0-4.8264541 1.0349773-6.5019531 2.7910156l-1.6445313-1.6445312c-.195-.195-.5120312-.195-.7070312 0-.097.098-.1464844.2255156-.1464844.3535156v4.5a1 1 0 0 0 1 1h4.5c.128 0 .2565156-.0484844.3535156-.1464844.195-.195.195-.5120312 0-.7070312l-1.9394531-1.9394532c1.3055774-1.3861682 3.1351845-2.2070312 5.0859375-2.2070312 3.52 0 6.502453 2.6320469 6.939453 6.123047.063.506.493235.876953.990235.876953.041 0 .082999-.001813.125-.007812.548-.068.93714-.567235.86914-1.115235-.561-4.4899999-4.397828-7.876953-8.923828-7.876953zm-8.0546875 9.007812c-.548.068-.9381406.567235-.8691406 1.115235.561 4.49 4.3978281 7.876953 8.9238281 7.876953 2.48642 0 4.807752-1.012801 6.5-2.792969l1.646484 1.646485c.195.195.512032.195.707032 0 .097-.098.146484-.225516.146484-.353516v-4.5a1 1 0 0 0 -1-1h-4.5c-.128 0-.256516.048484-.353516.146484-.195.195-.195.512032 0 .707032l1.939454 1.939453c-1.319092 1.405757-3.136806 2.207031-5.085938 2.207031-3.52 0-6.5024531-2.632047-6.9394531-6.123047-.068-.548-.5712344-.94014-1.1152344-.869141z"/></svg>